<svg xmlns="http://www.w3.org/2000/svg" viewBox="0 0 76.32 58.47"><defs><style>.cls-1{fill:#244bbc;}</style></defs><title>Asset 7</title><g id="Layer_2" data-name="Layer 2"><g id="Products"><path class="cls-1" d="M6.52,4.55V41.47L.34,53.84a3.05,3.05,0,0,0,.17,3.09,3.28,3.28,0,0,0,2.75,1.54h69.8a3.28,3.28,0,0,0,2.75-1.54A3.06,3.06,0,0,0,76,53.84L69.89,41.39V4.46A4.43,4.43,0,0,0,65.42,0H11A4.51,4.51,0,0,0,6.52,4.55ZM28.42,55l.94-2H46.79l.94,2Zm44.82.43c0,.08-.09.17-.26.17H51.34L49,51a1.42,1.42,0,0,0-1.29-.77H28.5a1.61,1.61,0,0,0-1.29.77l-2.32,4.64H3.17c-.17,0-.17-.09-.26-.17s-.08-.17,0-.26L8.84,43.27H67.4l5.92,11.94A.34.34,0,0,1,73.24,55.47ZM66.88,4.55V40.36H9.44V4.55A1.54,1.54,0,0,1,11,3H65.34A1.48,1.48,0,0,1,66.88,4.55Z"/></g></g></svg>