<svg xmlns="http://www.w3.org/2000/svg" viewBox="0 0 91.97 98.1"><defs><style>.cls-1{fill:#fff;}</style></defs><title>Asset 6</title><g id="Layer_2" data-name="Layer 2"><g id="Layer_6" data-name="Layer 6"><path class="cls-1" d="M36.49,19a1.54,1.54,0,0,0-2.15-.32c-4.59,3.41-11.78,7.46-19.94,7.46h-.05a3.66,3.66,0,0,0-2.53,1,3.54,3.54,0,0,0-1.09,2.52,80.85,80.85,0,0,0,3.85,23.1A55,55,0,0,0,25.91,73.07a1.52,1.52,0,0,0,1.14.5,1.5,1.5,0,0,0,1-.4,1.53,1.53,0,0,0,.1-2.16A51.79,51.79,0,0,1,17.5,51.83,76.91,76.91,0,0,1,13.8,29.7a.51.51,0,0,1,.14-.33.61.61,0,0,1,.42-.16h0c9,0,16.81-4.38,21.78-8A1.54,1.54,0,0,0,36.49,19Z"/><path class="cls-1" d="M45.94,1a3.06,3.06,0,0,0-2.17-1h-.1a3,3,0,0,0-2.11.89C41.4,1.06,25.05,17.5,4.72,17.5c-.53,0-1,0-1.58,0H3A2.92,2.92,0,0,0,.05,20.2,112.53,112.53,0,0,0,4,52.52C10.34,75.31,23.44,91,41.91,97.91A3,3,0,0,0,43,98.1a2.76,2.76,0,0,0,.75-.1c.43-.1,10.05-2.66,20.2-12.4a26.89,26.89,0,0,1-3.72-.73C51.22,92.85,43.06,95,43,95,25.47,88.5,13,73.51,7,51.7A110.39,110.39,0,0,1,3.1,20.54q.81,0,1.62,0c21.18,0,37.78-16.27,39-17.48C56.8,17.58,82.44,21.67,84.3,22a133.05,133.05,0,0,1-1,13.73,25.8,25.8,0,0,1,2.78,2.25,130.69,130.69,0,0,0,1.27-16.1,2.9,2.9,0,0,0-2.54-2.9C84.57,18.9,58.64,15.09,45.94,1Z"/><path class="cls-1" d="M92,58.25A24.52,24.52,0,0,0,67.45,33.72h0A24.53,24.53,0,1,0,92,58.25ZM83.3,71.94l-3-3a1.53,1.53,0,1,0-2.16,2.17l2.95,2.95a1.44,1.44,0,0,0,.42.29,21.3,21.3,0,0,1-12.67,5.26,1.45,1.45,0,0,0,.1-.51V75a1.54,1.54,0,0,0-3.07,0v4.18a1.45,1.45,0,0,0,.1.51,21.35,21.35,0,0,1-12.68-5.26,1.32,1.32,0,0,0,.42-.29l3-2.95A1.53,1.53,0,1,0,54.54,69l-2.95,3a1.32,1.32,0,0,0-.29.42A21.35,21.35,0,0,1,46,59.68a1.45,1.45,0,0,0,.51.1h4.18a1.54,1.54,0,0,0,0-3.07H46.55a1.45,1.45,0,0,0-.51.1,21.28,21.28,0,0,1,5.25-12.68,1.52,1.52,0,0,0,.3.43l2.95,2.95a1.53,1.53,0,0,0,2.17-2.17l-3-3a1.45,1.45,0,0,0-.43-.3A21.31,21.31,0,0,1,66,36.84a1.45,1.45,0,0,0-.1.51v4.18a1.54,1.54,0,1,0,3.07,0V37.35a1.45,1.45,0,0,0-.1-.51,21.33,21.33,0,0,1,13.06,5.58L67.87,55.28l-6.68-5.83a1.53,1.53,0,1,0-2,2.31l7.71,6.73a1.53,1.53,0,0,0,2,0L84.05,44.65a21.26,21.26,0,0,1,4.8,12.16,1.46,1.46,0,0,0-.52-.1H84.16a1.54,1.54,0,1,0,0,3.07h4.17a1.46,1.46,0,0,0,.52-.1,21.35,21.35,0,0,1-5.26,12.68A1.22,1.22,0,0,0,83.3,71.94Z"/><circle class="cls-1" cx="31.42" cy="76.64" r="1.53"/></g></g></svg>