<svg xmlns="http://www.w3.org/2000/svg" viewBox="0 0 69.74 98.1"><defs><style>.cls-1{fill:#fff;}</style></defs><title>Asset 9</title><g id="Layer_2" data-name="Layer 2"><g id="Layer_6" data-name="Layer 6"><path class="cls-1" d="M56.37,6.08h-43a1.53,1.53,0,1,0,0,3.06h43a1.53,1.53,0,1,0,0-3.06Z"/><path class="cls-1" d="M55.85,13.74a1.53,1.53,0,0,0-1.53-1.53H15.42a1.53,1.53,0,0,0,0,3.06h38.9A1.52,1.52,0,0,0,55.85,13.74Z"/><path class="cls-1" d="M51.76,19.88a1.53,1.53,0,0,0-1.53-1.53H19.52a1.53,1.53,0,1,0,0,3.06H50.23A1.54,1.54,0,0,0,51.76,19.88Z"/><path class="cls-1" d="M62.74,37.63a1.53,1.53,0,0,0-1.24-1l-3.39-.49L56.59,33a1.54,1.54,0,0,0-2.75,0L52.32,36.1l-3.39.49a1.54,1.54,0,0,0-.85,2.61l2.46,2.39L50,45a1.53,1.53,0,0,0,2.22,1.61l3-1.59,3,1.59a1.5,1.5,0,0,0,.71.18A1.53,1.53,0,0,0,60.47,45l-.58-3.37,2.46-2.39A1.53,1.53,0,0,0,62.74,37.63ZM57.18,40a1.51,1.51,0,0,0-.44,1.35l.19,1.11-1-.52a1.5,1.5,0,0,0-.71-.18,1.54,1.54,0,0,0-.72.18l-1,.52.2-1.11A1.51,1.51,0,0,0,53.25,40l-.8-.79L53.56,39a1.55,1.55,0,0,0,1.16-.84l.5-1,.49,1a1.55,1.55,0,0,0,1.16.84l1.11.16Z"/><path class="cls-1" d="M9.88,46.33a1.51,1.51,0,0,0,1.61.11l3-1.59,3,1.59a1.5,1.5,0,0,0,.71.18,1.53,1.53,0,0,0,.9-.29,1.51,1.51,0,0,0,.61-1.5l-.57-3.37,2.45-2.39a1.53,1.53,0,0,0-.85-2.61L17.42,36,15.9,32.9a1.54,1.54,0,0,0-2.75,0L11.64,36l-3.4.49a1.54,1.54,0,0,0-.85,2.61l2.46,2.39-.58,3.37A1.53,1.53,0,0,0,9.88,46.33Zm3-7.45A1.53,1.53,0,0,0,14,38l.5-1,.5,1a1.5,1.5,0,0,0,1.15.84L17.3,39l-.81.79a1.51,1.51,0,0,0-.44,1.35l.19,1.11-1-.52a1.5,1.5,0,0,0-.71-.18,1.54,1.54,0,0,0-.72.18l-1,.52L13,41.18a1.54,1.54,0,0,0-.44-1.35L11.76,39Z"/><path class="cls-1" d="M47.32,32.89a1.55,1.55,0,0,0-1.23-1L39.91,31l-2.77-5.59a1.54,1.54,0,0,0-2.75,0L31.63,31l-6.18.9a1.55,1.55,0,0,0-1.24,1,1.52,1.52,0,0,0,.39,1.57l4.47,4.35L28,45a1.52,1.52,0,0,0,2.22,1.61l5.53-2.9,5.53,2.9a1.47,1.47,0,0,0,.71.18A1.53,1.53,0,0,0,43.52,45l-1.06-6.15,4.48-4.35A1.54,1.54,0,0,0,47.32,32.89Zm-7.57,4.29a1.53,1.53,0,0,0-.44,1.36L40,42.42l-3.49-1.83a1.51,1.51,0,0,0-1.43,0l-3.49,1.83.67-3.88a1.56,1.56,0,0,0-.44-1.36L29,34.43l3.91-.56A1.52,1.52,0,0,0,34,33l1.75-3.53L37.51,33a1.55,1.55,0,0,0,1.16.84l3.9.56Z"/><path class="cls-1" d="M30.93,96.62a1.53,1.53,0,0,0,1.36-.83l3.42-6.61a7.24,7.24,0,0,1-1.24.11A6.59,6.59,0,0,1,32.38,89L31,91.67,29.16,88a1.33,1.33,0,0,0-.29-.4,6.51,6.51,0,0,1-.88.06,6.71,6.71,0,0,1-1.84-.27l-2.69.45.73-1.41a6.86,6.86,0,0,1-1.38-1.31,7.1,7.1,0,0,1-.74-1.28l-2.74,5.31a1.52,1.52,0,0,0,.13,1.6,1.54,1.54,0,0,0,1.49.61l6-1,2.64,5.43a1.55,1.55,0,0,0,1.36.86Z"/><path class="cls-1" d="M43.12,98.1h0a1.53,1.53,0,0,0,1.36-.86l2.65-5.47,6,1a1.52,1.52,0,0,0,1.61-2.21l-4.17-8.14a6.45,6.45,0,0,1-2.74,1.37l2.8,5.46-4.08-.69a1.54,1.54,0,0,0-1.64.85l-1.8,3.72L40.43,88a6,6,0,0,1-1.57-.35,6.51,6.51,0,0,1-1.52,1l4.42,8.63A1.53,1.53,0,0,0,43.12,98.1Z"/><path class="cls-1" d="M3.07,81.24h15a6.78,6.78,0,0,1-1.16-1.71,6.62,6.62,0,0,1-.43-1.35H3.07V3.06H66.68V78.18H52.84a6.49,6.49,0,0,1-.61,2.13,6.31,6.31,0,0,1-.58.93h15a3.06,3.06,0,0,0,3.06-3.06V3.06A3.06,3.06,0,0,0,66.68,0H3.07A3.07,3.07,0,0,0,0,3.06V78.18A3.07,3.07,0,0,0,3.07,81.24Z"/><path class="cls-1" d="M37.76,83.65a.3.3,0,0,1,.25-.24.31.31,0,0,1,.32.12,3.39,3.39,0,0,0,6-2.7.3.3,0,0,1,.12-.33.29.29,0,0,1,.34,0,3.39,3.39,0,0,0,4.27-5.06.3.3,0,0,1,0-.34.31.31,0,0,1,.3-.18A3.38,3.38,0,0,0,51,68.5a.31.31,0,0,1-.18-.3.3.3,0,0,1,.2-.28,3.38,3.38,0,0,0-1.3-6.48.3.3,0,0,1-.29-.19.29.29,0,0,1,.05-.34,3.39,3.39,0,0,0-4-5.28.29.29,0,0,1-.34-.05.28.28,0,0,1-.11-.32,3.38,3.38,0,0,0-5.88-3,.3.3,0,0,1-.33.11.32.32,0,0,1-.24-.25A3.39,3.39,0,0,0,32,51.91a.3.3,0,0,1-.24.24.3.3,0,0,1-.33-.13,3.39,3.39,0,0,0-6,2.71.29.29,0,0,1-.12.32.27.27,0,0,1-.34,0,3.39,3.39,0,0,0-4.27,5.06.27.27,0,0,1,0,.34.33.33,0,0,1-.29.18,3.38,3.38,0,0,0-1.65,6.4.32.32,0,0,1,0,.58A3.38,3.38,0,0,0,20,74.12a.31.31,0,0,1,.29.19.32.32,0,0,1,0,.34,3.38,3.38,0,0,0,4,5.28.32.32,0,0,1,.45.37,3.39,3.39,0,0,0,5.89,3,.32.32,0,0,1,.56.14,3.32,3.32,0,0,0,3.24,2.75h.1A3.31,3.31,0,0,0,37.76,83.65Zm-3-.73a.28.28,0,0,1-.32.24.28.28,0,0,1-.31-.26,3.34,3.34,0,0,0-2.48-2.64,3.22,3.22,0,0,0-.86-.11,3.34,3.34,0,0,0-2.6,1.23.29.29,0,0,1-.4.08.28.28,0,0,1-.16-.37A3.38,3.38,0,0,0,23,77.15a.28.28,0,0,1-.39-.1.28.28,0,0,1,0-.4,3.39,3.39,0,0,0-2.51-5.59.33.33,0,0,1-.13-.62,3.38,3.38,0,0,0,.17-6.12.28.28,0,0,1-.17-.37.28.28,0,0,1,.32-.24,3.38,3.38,0,0,0,2.81-5.44.29.29,0,0,1,0-.41.29.29,0,0,1,.4-.07,3.38,3.38,0,0,0,4.89-3.69.29.29,0,0,1,.19-.36.29.29,0,0,1,.39.1,3.38,3.38,0,0,0,6-1.2.32.32,0,0,1,.63,0,3.39,3.39,0,0,0,5.94,1.53.29.29,0,0,1,.4-.08.27.27,0,0,1,.16.36,3.39,3.39,0,0,0,4.7,3.95.28.28,0,0,1,.39.1.29.29,0,0,1,0,.4,3.39,3.39,0,0,0,2.52,5.59.28.28,0,0,1,.31.26.28.28,0,0,1-.19.35,3.38,3.38,0,0,0-.16,6.13.27.27,0,0,1,.16.36.27.27,0,0,1-.32.24,3.39,3.39,0,0,0-2.81,5.45.32.32,0,0,1-.4.48,3.39,3.39,0,0,0-4.9,3.69.32.32,0,0,1-.57.26,3.39,3.39,0,0,0-6,1.2Z"/><path class="cls-1" d="M38.84,77.27l.73-.5.83-.31a1.57,1.57,0,0,0,.6-.41l.59-.66.73-.5a1.62,1.62,0,0,0,.49-.55l.41-.78.59-.66a1.53,1.53,0,0,0,.34-.64l.21-.86.42-.78a1.58,1.58,0,0,0,.17-.71V69l.21-.86a1.5,1.5,0,0,0,0-.73L45,66.58V65.7a1.58,1.58,0,0,0-.17-.71l-.41-.78-.21-.86a1.46,1.46,0,0,0-.34-.65L43.25,62l-.41-.79a1.58,1.58,0,0,0-.49-.54l-.72-.51L41,59.54a1.59,1.59,0,0,0-.6-.42l-.82-.31-.73-.5a1.44,1.44,0,0,0-.68-.27l-.88-.1-.83-.32a1.51,1.51,0,0,0-.73-.09l-.87.1-.88-.1a1.63,1.63,0,0,0-.73.08l-.83.31-.87.11a1.53,1.53,0,0,0-.69.26l-.73.49-.83.32a1.47,1.47,0,0,0-.6.41l-.59.66-.73.5a1.5,1.5,0,0,0-.48.55l-.42.77-.58.66a1.53,1.53,0,0,0-.35.65l-.21.86-.41.78a1.47,1.47,0,0,0-.18.71v.88l-.22.86a1.5,1.5,0,0,0,0,.73l.21.86v.88a1.58,1.58,0,0,0,.17.71l.41.78.21.86a1.63,1.63,0,0,0,.34.65l.59.66.4.78a1.52,1.52,0,0,0,.49.55l.72.5.59.67a1.47,1.47,0,0,0,.6.41l.83.32.72.5a1.57,1.57,0,0,0,.69.26l.88.11.82.32A1.64,1.64,0,0,0,34,78l.88-.11.87.11h.19a1.4,1.4,0,0,0,.54-.1l.83-.31.87-.1A1.53,1.53,0,0,0,38.84,77.27Zm-1.42-2.73-.69.08a1.55,1.55,0,0,0-.36.08l-.64.25L35,74.86h-.37l-.69.08-.64-.24a1.19,1.19,0,0,0-.36-.09l-.69-.09-.57-.39a1.29,1.29,0,0,0-.33-.17l-.64-.25-.46-.52A1.55,1.55,0,0,0,30,73l-.57-.4-.32-.61a1.61,1.61,0,0,0-.21-.3l-.46-.52-.16-.67a2.09,2.09,0,0,0-.13-.35l-.32-.61V68.8a1.5,1.5,0,0,0-.05-.37l-.16-.67.17-.67a1.5,1.5,0,0,0,0-.37V66l.33-.61a1.4,1.4,0,0,0,.13-.34l.17-.67.46-.52a1.61,1.61,0,0,0,.21-.3l.32-.61.57-.39a1.32,1.32,0,0,0,.28-.25l.46-.51.65-.25a1.41,1.41,0,0,0,.32-.17l.57-.39.69-.08a1.19,1.19,0,0,0,.36-.09l.65-.24.68.08a1.54,1.54,0,0,0,.37,0l.69-.09.65.25a1.9,1.9,0,0,0,.36.09l.68.09.57.39a1.29,1.29,0,0,0,.33.17l.64.25.46.52a1.61,1.61,0,0,0,.28.24l.57.39.32.62a1.21,1.21,0,0,0,.2.3l.46.52.17.67a1.48,1.48,0,0,0,.13.35l.32.61v.69a1.57,1.57,0,0,0,0,.37l.16.67-.16.67a1.49,1.49,0,0,0,0,.36v.69l-.32.61a1.51,1.51,0,0,0-.14.35l-.16.67-.46.52a1,1,0,0,0-.21.3l-.33.61L39.7,73a2.09,2.09,0,0,0-.28.24l-.46.52-.64.24a1.71,1.71,0,0,0-.33.17Z"/></g></g></svg>