<svg xmlns="http://www.w3.org/2000/svg" viewBox="0 0 98.1 98.1"><defs><style>.cls-1{fill:#fff;}</style></defs><title>Asset 8</title><g id="Layer_2" data-name="Layer 2"><g id="Layer_6" data-name="Layer 6"><circle class="cls-1" cx="1.53" cy="96.57" r="1.53"/><path class="cls-1" d="M16.82,3.07h38.4a1.52,1.52,0,0,1,1.49,1.55v46h1l2.09-3.64V4.62A4.6,4.6,0,0,0,55.22,0H16.82a4.59,4.59,0,0,0-4.56,4.6h3.07A1.52,1.52,0,0,1,16.82,3.07Z"/><path class="cls-1" d="M7.66,12.28a1.53,1.53,0,0,1,1.5-1.55h38.4a1.53,1.53,0,0,1,1.49,1.55v38.3h3.07V12.28a4.6,4.6,0,0,0-4.56-4.62H9.16A4.6,4.6,0,0,0,4.6,12.28v38.3H7.66Z"/><path class="cls-1" d="M93.5,40.62H70.89A7.32,7.32,0,0,0,65,44.05l-5.5,9.6H4.6A4.6,4.6,0,0,0,0,58.25V90.44a1.54,1.54,0,0,0,3.07,0V58.25A1.53,1.53,0,0,1,4.6,56.71H60.35a1.52,1.52,0,0,0,1.33-.77l5.95-10.37a4.38,4.38,0,0,1,3.26-1.88H93.5A1.52,1.52,0,0,1,95,45.22V96.57a1.54,1.54,0,0,0,3.07,0V45.22A4.6,4.6,0,0,0,93.5,40.62Z"/><path class="cls-1" d="M39.47,24.52H17.24a1.54,1.54,0,0,0,0,3.07H39.47a1.54,1.54,0,0,0,0-3.07Z"/><path class="cls-1" d="M39.47,18.39H17.24a1.54,1.54,0,0,0,0,3.07H39.47a1.54,1.54,0,0,0,0-3.07Z"/><path class="cls-1" d="M39.47,30.66H17.24a1.53,1.53,0,1,0,0,3.06H39.47a1.53,1.53,0,1,0,0-3.06Z"/><path class="cls-1" d="M39.47,36.79H17.24a1.53,1.53,0,1,0,0,3.06H39.47a1.53,1.53,0,0,0,0-3.06Z"/><path class="cls-1" d="M39.47,42.92H17.24a1.53,1.53,0,0,0,0,3.06H39.47a1.53,1.53,0,1,0,0-3.06Z"/><path class="cls-1" d="M29.47,69.89a3.7,3.7,0,0,1,2.78,2.28,1.53,1.53,0,1,0,2.94-.88A6.74,6.74,0,0,0,30,66.87l-.11,0v-.94a1.54,1.54,0,0,0-3.07,0v1a5.82,5.82,0,0,0-3.92,2.32,4.9,4.9,0,0,0,0,5.44c1.23,1.92,3.38,2.5,5.28,3s3.13.9,3.49,2-.73,1.79-1.35,2a4.9,4.9,0,0,1-3.73-.15,3.9,3.9,0,0,1-2.14-2.12,1.53,1.53,0,0,0-2.88,1,6.87,6.87,0,0,0,3.77,3.87,8.25,8.25,0,0,0,1.5.5v1a1.54,1.54,0,0,0,3.07,0v-.91a7.68,7.68,0,0,0,1.56-.43c2.6-1,3.9-3.51,3.11-5.86-.91-2.69-3.51-3.39-5.61-4-1.49-.4-2.89-.78-3.49-1.7a1.86,1.86,0,0,1,0-2C26.17,69.85,28,69.63,29.47,69.89Z"/><path class="cls-1" d="M84.21,49.82H76.57a5,5,0,0,0-3.75,1.87L70,56.55a1.54,1.54,0,0,0,2.65,1.56l2.72-4.64a2.09,2.09,0,0,1,1.25-.59h7.64a1.61,1.61,0,0,1,1.63,1.59v26a1.53,1.53,0,1,0,3.06,0v-26A4.67,4.67,0,0,0,84.21,49.82Z"/><circle class="cls-1" cx="87.37" cy="86.6" r="1.53"/><path class="cls-1" d="M64.38,20V40.09a11.09,11.09,0,0,1,3.06-1.84V20a4.59,4.59,0,0,0-4.56-4.62h0v3.06h0A1.53,1.53,0,0,1,64.38,20Z"/></g></g></svg>