<svg xmlns="http://www.w3.org/2000/svg" viewBox="0 0 80.2 58.64"><defs><style>.cls-1{fill:#244bbc;}</style></defs><title>Asset 6</title><g id="Layer_2" data-name="Layer 2"><g id="Products"><path class="cls-1" d="M1.69,55.64l0,0c-.08,1-.18,1.93-.27,2.9H42a1.37,1.37,0,0,0,1.37-1.37v0a1.53,1.53,0,0,0-1.52-1.52Z"/><path class="cls-1" d="M53.56,55.72l0,0c-.09,1-.19,1.93-.28,2.89H78.19a1.37,1.37,0,0,0,1.37-1.37v0A1.53,1.53,0,0,0,78,55.72Z"/><path class="cls-1" d="M53.23,58.64a1.49,1.49,0,0,1-1.45-1.46V49.89a3.64,3.64,0,0,0-1.38-2.84,82.44,82.44,0,0,0-14.85-9.53,2,2,0,0,1-1.12-1.72V25.59a1.38,1.38,0,0,1,.69-1.21,3.21,3.21,0,0,0,1.46-2.74V11a8.07,8.07,0,0,0-8.07-8.07H26.19A8.06,8.06,0,0,0,18.12,11V21.55a3.19,3.19,0,0,0,1.46,2.75,1.37,1.37,0,0,1,.68,1.2V35.72a1.81,1.81,0,0,1-1.11,1.72A84.11,84.11,0,0,0,4.29,47,3.59,3.59,0,0,0,2.92,49.8v7.3a1.51,1.51,0,0,1-1.46,1.46A1.51,1.51,0,0,1,0,57.1V49.89a6.4,6.4,0,0,1,2.4-5.07A87.38,87.38,0,0,1,17.26,35.2V26.27a6.77,6.77,0,0,1-2-4.72V11a11,11,0,0,1,11-11h2.32a11,11,0,0,1,11,11V21.55a6.27,6.27,0,0,1-2.14,4.72V35.2a87.42,87.42,0,0,1,14.85,9.62,6.5,6.5,0,0,1,2.4,5.07v7.29A1.5,1.5,0,0,1,53.23,58.64Zm24.05-7.38v5.92a1.46,1.46,0,0,0,2.92,0V51.26a5.77,5.77,0,0,0-2.07-4.38,72.06,72.06,0,0,0-12-7.81v-7a5.24,5.24,0,0,0,1.72-3.95V19.49a9.28,9.28,0,0,0-9.27-9.27H56.67a9.28,9.28,0,0,0-9.27,9.27v8.67a5.27,5.27,0,0,0,1.71,3.95v5.5a1.46,1.46,0,1,0,2.92,0V31.34a1.36,1.36,0,0,0-.68-1.2,2.41,2.41,0,0,1-1.12-2.06V19.49a6.33,6.33,0,0,1,6.35-6.35h1.89a6.34,6.34,0,0,1,6.36,6.35v8.67a2.63,2.63,0,0,1-1.12,2.06A1.38,1.38,0,0,0,63,31.43v8.32a1.83,1.83,0,0,0,1,1.64,65.2,65.2,0,0,1,12,7.72A2.38,2.38,0,0,1,77.28,51.26Z"/></g></g></svg>