<svg xmlns="http://www.w3.org/2000/svg" viewBox="0 0 98.1 90.48"><defs><style>.cls-1{fill:#fff;}</style></defs><title>Asset 7</title><g id="Layer_2" data-name="Layer 2"><g id="Layer_6" data-name="Layer 6"><circle class="cls-1" cx="87.33" cy="73.62" r="1.53"/><circle class="cls-1" cx="68.86" cy="15.31" r="1.53"/><circle class="cls-1" cx="24.75" cy="55.21" r="1.53"/><path class="cls-1" d="M83,75.17a4.5,4.5,0,0,1,0-3.07H15.21a4.5,4.5,0,0,1,0,3.07Z"/><path class="cls-1" d="M96.57,0h-95A1.54,1.54,0,0,0,0,1.53V79.75a1.53,1.53,0,0,0,1.53,1.53h41v6.14H27.84a1.53,1.53,0,1,0,0,3.06H70.26a1.53,1.53,0,1,0,0-3.06H55.55V81.28h41a1.53,1.53,0,0,0,1.53-1.53V1.53A1.54,1.54,0,0,0,96.57,0ZM52.49,87.37h-6.9V81.24h6.9ZM95,72.12H91.65a4.47,4.47,0,0,1,0,3.06H95v3.07h-92V75.18H6.58a4.47,4.47,0,0,1,0-3.06H3.07V3.07H95Z"/><circle class="cls-1" cx="10.89" cy="73.62" r="1.53"/><path class="cls-1" d="M23.81,50.73A28.44,28.44,0,0,1,64.55,13.8a4.67,4.67,0,0,1,2-2.37A31.48,31.48,0,0,0,21.19,52.35,4.62,4.62,0,0,1,23.81,50.73Z"/><path class="cls-1" d="M66.09,60.35,55.81,57.48l-.64-3.07a10.06,10.06,0,0,0,4.6-5.19h.47a8.55,8.55,0,0,0,8.43-7.45,6.54,6.54,0,0,0,2.59-7.37,19.16,19.16,0,0,0-19-17.18H45.82A19.15,19.15,0,0,0,26.66,36.34a6.55,6.55,0,0,0,6.53,6.58h0a1.53,1.53,0,0,0,1.53-1.53V31.32a1.53,1.53,0,0,0-1.53-1.54,6.5,6.5,0,0,0-2.3.42,16.09,16.09,0,0,1,14.86-10h6.47a16.11,16.11,0,0,1,14.83,9.84,6.35,6.35,0,0,0-2-.33,1.53,1.53,0,0,0-1.53,1.54v10a1.53,1.53,0,0,0,1.53,1.53h.23a5.5,5.5,0,0,1-4.51,3.25A31.19,31.19,0,0,0,61.44,40a2,2,0,0,0,.62-.19,2.35,2.35,0,0,0,1.16-2.56V37C62.85,32.47,62,22,48.11,22.69,41.81,23,38.68,24.1,38,26.26a3,3,0,0,0-.15.85,3,3,0,0,0-.36.18c-1.35.77-2.1,2.46-2.21,5-.17,1.64-.3,5.36,1.73,6.7v.46c0,7.94,2.17,12.9,6.49,15l-.63,3-10.64,3a28.79,28.79,0,0,1-3.47-3,4.57,4.57,0,0,1-2.29,2,31.48,31.48,0,0,0,6.23,5l.09.07a1.41,1.41,0,0,0,.34.19,31.29,31.29,0,0,0,11.58,4,2,2,0,0,0,.34,0,31.68,31.68,0,0,0,8.86-.1h.07a31.47,31.47,0,0,0,12.74-5.06l.27-.18.11-.1a31.41,31.41,0,0,0,7.87-43.73Q74,18.38,73,17.19a4.64,4.64,0,0,1-2.12,2.21,28.36,28.36,0,0,1-3.56,39.94c-.41.35-.83.68-1.27,1ZM31.7,33.19v6.3a3.5,3.5,0,0,1-1.63-4.67A3.57,3.57,0,0,1,31.7,33.19Zm34.89,0A3.51,3.51,0,0,1,68.31,35c0,.45.07.9.07,1.35a1.53,1.53,0,0,0,.12.6,3.53,3.53,0,0,1-1.4,2.15,1.5,1.5,0,0,0-.51.15ZM35.65,62.65l6.69-1.87c.1.4.21.84.3,1.29.23,1,.42,2.12.6,3.35A28.1,28.1,0,0,1,35.65,62.65Zm2.94-26.29a8.72,8.72,0,0,1-.27-3.8v-.1c.07-1.7.46-2.39.68-2.52a.64.64,0,0,1,.47,0,1.53,1.53,0,0,0,1.68-2.53,1.57,1.57,0,0,1-.2-.25c.31-.27,1.75-1.17,7.35-1.44,10.31-.51,11.4,5.86,11.81,10.59-1-.7-2.18-1.78-2.89-2.4-2-1.77-3-2.59-4.14-1.72a1.66,1.66,0,0,0-.48,2.06,8.2,8.2,0,0,1-4.75-2.39C47,31,46.15,30.08,45,30.17s-1.74,1-2.36,2a14.28,14.28,0,0,1-3,3.51,3.71,3.71,0,0,1-1,.7ZM53,61.42c-.28,1.29-.53,2.76-.76,4.41A26.58,26.58,0,0,1,49,66c-.89,0-1.78,0-2.66-.13-.23-1.66-.48-3.16-.77-4.45-.08-.39-.17-.77-.26-1.12l1-4.89a15.94,15.94,0,0,0,2.84.24h0a15,15,0,0,0,3.06-.29l1,4.94L53,61.41Zm-3.83-8.8c-2.74,0-9.14,0-9.2-13.18v-.39a7.07,7.07,0,0,0,1.59-1,17.27,17.27,0,0,0,3.65-4.21l.11-.18.27.3c2.24,2.49,7,4.36,9.25,2.89a2.38,2.38,0,0,0,.51-.44q1.47,1.34,3.06,2.52v.57a25.75,25.75,0,0,1-.76,6.66H54.74a1.45,1.45,0,0,0-.49-.89c-.52-.52-.52-.52-4.89-.34a1.52,1.52,0,0,0-1.47,1.53v2.74a1.52,1.52,0,0,0,1.53,1.53H53.2a1.53,1.53,0,0,0,1.53-1.53h1.61c-2.13,3.46-5.39,3.46-7.14,3.46ZM55.4,65.29c.17-1.19.36-2.3.57-3.22.1-.44.2-.88.31-1.29l6.36,1.77a28.3,28.3,0,0,1-7.22,2.74Z"/></g></g></svg>